<svg width="659" height="303" viewBox="0 0 659 303" fill="none" xmlns="http://www.w3.org/2000/svg">
<path fill-rule="evenodd" clip-rule="evenodd" d="M266.525 1.49031C194.823 8.63389 119.813 27.4312 37.3137 58.9282C17.7682 66.391 -1.78232 74.7886 0.129718 74.9026C0.766509 74.9396 7.63785 72.7822 15.4027 70.106C100.431 40.8035 200.384 26.7472 285.696 32.0953C329.806 34.8612 337.184 36.0511 412.809 52.6026C421.292 54.4594 428.649 56.3333 429.157 56.7679C429.664 57.2025 427.412 63.464 424.151 70.6831C411.944 97.7028 417.743 103.957 454.895 103.845C512.363 103.669 590.52 85.7583 644.526 60.3874C660.922 52.6838 663.813 50.2399 650.959 54.951C646.678 56.52 636.258 59.3928 627.801 61.3379C599.419 67.863 582.604 69.7341 551.581 69.8196C520.65 69.9051 508.984 68.7394 458.546 60.5257C435.638 56.795 431.516 55.7433 432.369 53.8424C434.737 48.5684 435.142 39.3229 433.221 34.3496C424.896 12.7878 385.864 1.16256 318.202 0.0938066C297.748 -0.228246 278.588 0.289027 266.525 1.49031Z" fill="white"/>
<path d="M118.432 218H92.0645V209.431C87.5234 213.142 83.2754 215.876 79.3203 217.634C75.3652 219.392 70.7998 220.271 65.624 220.271C55.6143 220.271 47.6064 216.413 41.6006 208.698C35.5947 200.983 32.5918 190.583 32.5918 177.497C32.5918 170.515 33.5928 164.338 35.5947 158.967C37.6455 153.547 40.4287 148.908 43.9443 145.051C47.2646 141.389 51.293 138.557 56.0293 136.555C60.7656 134.504 65.502 133.479 70.2383 133.479C75.1699 133.479 79.1982 134.016 82.3232 135.09C85.4971 136.115 88.7441 137.434 92.0645 139.045V104.035H118.432V218ZM92.0645 195.295V154.938C90.209 154.157 88.2559 153.596 86.2051 153.254C84.1543 152.912 82.2744 152.741 80.5654 152.741C73.6318 152.741 68.4316 154.914 64.9648 159.26C61.498 163.557 59.7646 169.538 59.7646 177.204C59.7646 185.261 61.1562 191.12 63.9395 194.782C66.7227 198.396 71.1904 200.202 77.3428 200.202C79.7354 200.202 82.2744 199.763 84.96 198.884C87.6455 197.956 90.0137 196.76 92.0645 195.295ZM224.34 181.745H163.988C164.379 188.19 166.82 193.122 171.312 196.54C175.854 199.958 182.519 201.667 191.308 201.667C196.874 201.667 202.27 200.666 207.494 198.664C212.719 196.662 216.845 194.514 219.872 192.219H222.802V213.386C216.845 215.778 211.229 217.512 205.956 218.586C200.683 219.66 194.848 220.197 188.451 220.197C171.947 220.197 159.301 216.486 150.512 209.064C141.723 201.643 137.328 191.071 137.328 177.351C137.328 163.776 141.479 153.034 149.779 145.124C158.129 137.165 169.555 133.186 184.057 133.186C197.436 133.186 207.494 136.579 214.232 143.366C220.971 150.104 224.34 159.821 224.34 172.517V181.745ZM198.119 166.291C197.973 160.773 196.605 156.623 194.018 153.84C191.43 151.057 187.401 149.665 181.933 149.665C176.854 149.665 172.68 150.983 169.408 153.62C166.137 156.257 164.306 160.48 163.915 166.291H198.119ZM269.311 218H242.943V135.749H269.311V218ZM270.043 124.03H242.211V104.035H270.043V124.03ZM374.633 159.699V218H348.119V176.911C348.119 172.907 348.021 169.514 347.826 166.73C347.631 163.898 347.094 161.604 346.215 159.846C345.336 158.088 343.993 156.818 342.187 156.037C340.429 155.207 337.938 154.792 334.716 154.792C332.128 154.792 329.613 155.329 327.172 156.403C324.73 157.429 322.533 158.527 320.58 159.699V218H294.213V135.749H320.58V144.831C325.121 141.267 329.467 138.483 333.617 136.481C337.768 134.479 342.357 133.479 347.387 133.479C352.807 133.479 357.592 134.699 361.742 137.141C365.893 139.533 369.14 143.073 371.483 147.761C376.757 143.317 381.884 139.826 386.864 137.287C391.845 134.748 396.728 133.479 401.513 133.479C410.399 133.479 417.138 136.14 421.728 141.462C426.366 146.784 428.686 154.45 428.686 164.46V218H402.172V176.911C402.172 172.858 402.074 169.44 401.879 166.657C401.732 163.874 401.22 161.604 400.341 159.846C399.511 158.088 398.192 156.818 396.386 156.037C394.579 155.207 392.04 154.792 388.769 154.792C386.571 154.792 384.423 155.183 382.323 155.964C380.224 156.696 377.66 157.941 374.633 159.699ZM537.084 176.911C537.084 190.437 533.129 201.105 525.219 208.918C517.357 216.682 506.298 220.563 492.04 220.563C477.782 220.563 466.698 216.682 458.788 208.918C450.927 201.105 446.996 190.437 446.996 176.911C446.996 163.288 450.951 152.595 458.861 144.831C466.82 137.067 477.88 133.186 492.04 133.186C506.396 133.186 517.479 137.092 525.292 144.904C533.153 152.717 537.084 163.386 537.084 176.911ZM504.638 196.906C506.347 194.807 507.616 192.292 508.446 189.362C509.325 186.384 509.765 182.282 509.765 177.058C509.765 172.224 509.325 168.171 508.446 164.899C507.567 161.628 506.347 159.016 504.784 157.062C503.222 155.061 501.342 153.645 499.145 152.814C496.947 151.984 494.579 151.569 492.04 151.569C489.501 151.569 487.23 151.911 485.229 152.595C483.275 153.278 481.396 154.646 479.589 156.696C477.978 158.601 476.684 161.213 475.707 164.533C474.779 167.854 474.315 172.028 474.315 177.058C474.315 181.55 474.73 185.456 475.561 188.776C476.391 192.048 477.611 194.685 479.223 196.687C480.785 198.591 482.641 199.982 484.789 200.861C486.986 201.74 489.477 202.18 492.26 202.18C494.652 202.18 496.923 201.789 499.071 201.008C501.269 200.178 503.124 198.811 504.638 196.906ZM627.465 191.926C627.465 200.422 623.656 207.282 616.039 212.507C608.422 217.683 597.997 220.271 584.765 220.271C577.44 220.271 570.8 219.587 564.843 218.22C558.886 216.853 554.101 215.339 550.487 213.679V191.999H552.904C554.223 192.927 555.736 193.952 557.445 195.075C559.203 196.149 561.669 197.321 564.843 198.591C567.577 199.714 570.678 200.69 574.145 201.521C577.611 202.302 581.322 202.692 585.277 202.692C590.453 202.692 594.286 202.131 596.776 201.008C599.267 199.836 600.512 198.127 600.512 195.881C600.512 193.879 599.779 192.438 598.314 191.56C596.85 190.632 594.066 189.753 589.965 188.923C588.012 188.483 585.351 188.02 581.981 187.531C578.661 186.994 575.634 186.359 572.899 185.627C565.429 183.674 559.887 180.646 556.273 176.545C552.66 172.395 550.854 167.243 550.854 161.091C550.854 153.181 554.589 146.613 562.06 141.389C569.579 136.115 579.833 133.479 592.821 133.479C598.974 133.479 604.857 134.113 610.473 135.383C616.137 136.604 620.556 137.922 623.729 139.338V160.139H621.459C617.553 157.453 613.085 155.28 608.056 153.62C603.075 151.911 598.021 151.057 592.895 151.057C588.646 151.057 585.058 151.643 582.128 152.814C579.247 153.986 577.807 155.646 577.807 157.795C577.807 159.748 578.466 161.237 579.784 162.263C581.103 163.288 584.203 164.313 589.086 165.339C591.771 165.876 594.652 166.413 597.729 166.95C600.854 167.438 603.979 168.073 607.104 168.854C614.037 170.661 619.164 173.518 622.484 177.424C625.805 181.281 627.465 186.115 627.465 191.926Z" fill="white"/>
<path d="M214.383 275.498H190.242C190.398 278.076 191.375 280.049 193.172 281.416C194.988 282.783 197.654 283.467 201.17 283.467C203.396 283.467 205.555 283.066 207.645 282.266C209.734 281.465 211.385 280.605 212.596 279.688H213.768V288.154C211.385 289.111 209.139 289.805 207.029 290.234C204.92 290.664 202.586 290.879 200.027 290.879C193.426 290.879 188.367 289.395 184.852 286.426C181.336 283.457 179.578 279.229 179.578 273.74C179.578 268.311 181.238 264.014 184.559 260.85C187.898 257.666 192.469 256.074 198.27 256.074C203.621 256.074 207.645 257.432 210.34 260.146C213.035 262.842 214.383 266.729 214.383 271.807V275.498ZM203.895 269.316C203.836 267.109 203.289 265.449 202.254 264.336C201.219 263.223 199.607 262.666 197.42 262.666C195.389 262.666 193.719 263.193 192.41 264.248C191.102 265.303 190.369 266.992 190.213 269.316H203.895ZM232.371 290H221.824V244.414H232.371V290ZM274.734 275.498H250.594C250.75 278.076 251.727 280.049 253.523 281.416C255.34 282.783 258.006 283.467 261.521 283.467C263.748 283.467 265.906 283.066 267.996 282.266C270.086 281.465 271.736 280.605 272.947 279.688H274.119V288.154C271.736 289.111 269.49 289.805 267.381 290.234C265.271 290.664 262.938 290.879 260.379 290.879C253.777 290.879 248.719 289.395 245.203 286.426C241.688 283.457 239.93 279.229 239.93 273.74C239.93 268.311 241.59 264.014 244.91 260.85C248.25 257.666 252.82 256.074 258.621 256.074C263.973 256.074 267.996 257.432 270.691 260.146C273.387 262.842 274.734 266.729 274.734 271.807V275.498ZM264.246 269.316C264.188 267.109 263.641 265.449 262.605 264.336C261.57 263.223 259.959 262.666 257.771 262.666C255.74 262.666 254.07 263.193 252.762 264.248C251.453 265.303 250.721 266.992 250.564 269.316H264.246ZM299.314 290.879C296.443 290.879 293.816 290.537 291.434 289.854C289.07 289.17 287.01 288.115 285.252 286.689C283.514 285.264 282.166 283.467 281.209 281.299C280.252 279.131 279.773 276.592 279.773 273.682C279.773 270.615 280.281 267.969 281.297 265.742C282.332 263.516 283.768 261.67 285.604 260.205C287.381 258.818 289.432 257.803 291.756 257.158C294.08 256.514 296.492 256.191 298.992 256.191C301.238 256.191 303.309 256.436 305.203 256.924C307.098 257.412 308.865 258.047 310.506 258.828V267.822H309.012C308.602 267.471 308.104 267.061 307.518 266.592C306.951 266.123 306.248 265.664 305.408 265.215C304.607 264.785 303.729 264.434 302.771 264.16C301.814 263.867 300.701 263.721 299.432 263.721C296.619 263.721 294.451 264.619 292.928 266.416C291.424 268.193 290.672 270.615 290.672 273.682C290.672 276.846 291.443 279.248 292.986 280.889C294.549 282.529 296.756 283.35 299.607 283.35C300.936 283.35 302.127 283.203 303.182 282.91C304.256 282.598 305.145 282.236 305.848 281.826C306.512 281.436 307.098 281.025 307.605 280.596C308.113 280.166 308.582 279.746 309.012 279.336H310.506V288.33C308.846 289.111 307.107 289.727 305.291 290.176C303.494 290.645 301.502 290.879 299.314 290.879ZM350.555 290H339.949V273.682C339.949 272.354 339.881 271.035 339.744 269.727C339.607 268.398 339.373 267.422 339.041 266.797C338.65 266.074 338.074 265.547 337.312 265.215C336.57 264.883 335.525 264.717 334.178 264.717C333.221 264.717 332.244 264.873 331.248 265.186C330.271 265.498 329.207 265.996 328.055 266.68V290H317.508V257.1H328.055V260.732C329.93 259.268 331.727 258.145 333.445 257.363C335.184 256.582 337.107 256.191 339.217 256.191C342.771 256.191 345.545 257.227 347.537 259.297C349.549 261.367 350.555 264.463 350.555 268.584V290ZM393.914 273.564C393.914 278.975 392.332 283.242 389.168 286.367C386.023 289.473 381.6 291.025 375.896 291.025C370.193 291.025 365.76 289.473 362.596 286.367C359.451 283.242 357.879 278.975 357.879 273.564C357.879 268.115 359.461 263.838 362.625 260.732C365.809 257.627 370.232 256.074 375.896 256.074C381.639 256.074 386.072 257.637 389.197 260.762C392.342 263.887 393.914 268.154 393.914 273.564ZM380.936 281.562C381.619 280.723 382.127 279.717 382.459 278.545C382.811 277.354 382.986 275.713 382.986 273.623C382.986 271.689 382.811 270.068 382.459 268.76C382.107 267.451 381.619 266.406 380.994 265.625C380.369 264.824 379.617 264.258 378.738 263.926C377.859 263.594 376.912 263.428 375.896 263.428C374.881 263.428 373.973 263.564 373.172 263.838C372.391 264.111 371.639 264.658 370.916 265.479C370.271 266.24 369.754 267.285 369.363 268.613C368.992 269.941 368.807 271.611 368.807 273.623C368.807 275.42 368.973 276.982 369.305 278.311C369.637 279.619 370.125 280.674 370.77 281.475C371.395 282.236 372.137 282.793 372.996 283.145C373.875 283.496 374.871 283.672 375.984 283.672C376.941 283.672 377.85 283.516 378.709 283.203C379.588 282.871 380.33 282.324 380.936 281.562ZM425.32 267.148H424.383C423.934 266.992 423.211 266.875 422.215 266.797C421.219 266.719 420.389 266.68 419.725 266.68C418.221 266.68 416.893 266.777 415.74 266.973C414.588 267.168 413.348 267.5 412.02 267.969V290H401.473V257.1H412.02V261.934C414.344 259.941 416.365 258.623 418.084 257.979C419.803 257.314 421.385 256.982 422.83 256.982C423.201 256.982 423.621 256.992 424.09 257.012C424.559 257.031 424.969 257.061 425.32 257.1V267.148ZM478.787 286.279C478.787 291.826 477.527 295.898 475.008 298.496C472.488 301.094 468.611 302.393 463.377 302.393C461.639 302.393 459.939 302.266 458.279 302.012C456.639 301.777 455.018 301.436 453.416 300.986V295.361H453.709C454.607 295.713 456.033 296.143 457.986 296.65C459.939 297.178 461.893 297.441 463.846 297.441C465.721 297.441 467.273 297.217 468.504 296.768C469.734 296.318 470.691 295.693 471.375 294.893C472.059 294.131 472.547 293.213 472.84 292.139C473.133 291.064 473.279 289.863 473.279 288.535V285.547C471.619 286.875 470.027 287.871 468.504 288.535C467 289.18 465.076 289.502 462.732 289.502C458.826 289.502 455.721 288.096 453.416 285.283C451.131 282.451 449.988 278.467 449.988 273.33C449.988 270.518 450.379 268.096 451.16 266.064C451.961 264.014 453.045 262.246 454.412 260.762C455.682 259.375 457.225 258.301 459.041 257.539C460.857 256.758 462.664 256.367 464.461 256.367C466.355 256.367 467.938 256.562 469.207 256.953C470.496 257.324 471.854 257.9 473.279 258.682L473.631 257.275H478.787V286.279ZM473.279 281.006V263.164C471.814 262.5 470.447 262.031 469.178 261.758C467.928 261.465 466.678 261.318 465.428 261.318C462.4 261.318 460.018 262.334 458.279 264.365C456.541 266.396 455.672 269.346 455.672 273.213C455.672 276.885 456.316 279.668 457.605 281.562C458.895 283.457 461.033 284.404 464.021 284.404C465.623 284.404 467.225 284.102 468.826 283.496C470.447 282.871 471.932 282.041 473.279 281.006ZM510.047 263.281H509.754C508.934 263.086 508.133 262.949 507.352 262.871C506.59 262.773 505.682 262.725 504.627 262.725C502.928 262.725 501.287 263.105 499.705 263.867C498.123 264.609 496.6 265.576 495.135 266.768V290H489.627V257.275H495.135V262.109C497.322 260.352 499.246 259.111 500.906 258.389C502.586 257.646 504.295 257.275 506.033 257.275C506.99 257.275 507.684 257.305 508.113 257.363C508.543 257.402 509.188 257.49 510.047 257.627V263.281ZM543.123 273.652C543.123 278.984 541.756 283.193 539.021 286.279C536.287 289.365 532.625 290.908 528.035 290.908C523.406 290.908 519.725 289.365 516.99 286.279C514.275 283.193 512.918 278.984 512.918 273.652C512.918 268.32 514.275 264.111 516.99 261.025C519.725 257.92 523.406 256.367 528.035 256.367C532.625 256.367 536.287 257.92 539.021 261.025C541.756 264.111 543.123 268.32 543.123 273.652ZM537.439 273.652C537.439 269.414 536.609 266.27 534.949 264.219C533.289 262.148 530.984 261.113 528.035 261.113C525.047 261.113 522.723 262.148 521.062 264.219C519.422 266.27 518.602 269.414 518.602 273.652C518.602 277.754 519.432 280.869 521.092 282.998C522.752 285.107 525.066 286.162 528.035 286.162C530.965 286.162 533.26 285.117 534.92 283.027C536.6 280.918 537.439 277.793 537.439 273.652ZM578.807 290H573.299V286.367C571.443 287.832 569.666 288.955 567.967 289.736C566.268 290.518 564.393 290.908 562.342 290.908C558.904 290.908 556.229 289.863 554.314 287.773C552.4 285.664 551.443 282.578 551.443 278.516V257.275H556.951V275.908C556.951 277.568 557.029 278.994 557.186 280.186C557.342 281.357 557.674 282.363 558.182 283.203C558.709 284.062 559.393 284.688 560.232 285.078C561.072 285.469 562.293 285.664 563.895 285.664C565.32 285.664 566.873 285.293 568.553 284.551C570.252 283.809 571.834 282.861 573.299 281.709V257.275H578.807V290ZM618.445 273.242C618.445 275.898 618.064 278.33 617.303 280.537C616.541 282.725 615.467 284.58 614.08 286.104C612.791 287.549 611.268 288.672 609.51 289.473C607.771 290.254 605.926 290.645 603.973 290.645C602.273 290.645 600.73 290.459 599.344 290.088C597.977 289.717 596.58 289.141 595.154 288.359V302.07H589.646V257.275H595.154V260.703C596.619 259.473 598.26 258.447 600.076 257.627C601.912 256.787 603.865 256.367 605.936 256.367C609.881 256.367 612.947 257.861 615.135 260.85C617.342 263.818 618.445 267.949 618.445 273.242ZM612.762 273.389C612.762 269.443 612.088 266.494 610.74 264.541C609.393 262.588 607.322 261.611 604.529 261.611C602.947 261.611 601.355 261.953 599.754 262.637C598.152 263.32 596.619 264.219 595.154 265.332V283.877C596.717 284.58 598.055 285.059 599.168 285.312C600.301 285.566 601.58 285.693 603.006 285.693C606.072 285.693 608.465 284.658 610.184 282.588C611.902 280.518 612.762 277.451 612.762 273.389Z" fill="white"/>
</svg>
